<?xml version="1.0" encoding="iso-8859-1"?>
<!-- Generator: Adobe Illustrator 19.0.0, SVG Export Plug-In . SVG Version: 6.00 Build 0)  -->
<svg version="1.1" id="Capa_1" xmlns="http://www.w3.org/2000/svg" xmlns:xlink="http://www.w3.org/1999/xlink" x="0px" y="0px"
	 viewBox="0 0 512 512" style="enable-background:new 0 0 512 512; color: lightblue; fill: currentColor;" xml:space="preserve">
<g>
	<g>
		<path d="M499.314,271C423.597,271,361,209.403,361,133.686V121h-30v12.686C331,209.403,269.403,271,193.686,271H181v30h12.686
			C269.403,301,331,362.597,331,438.314V451h30v-12.686C361,362.597,423.597,301,499.314,301H512v-30H499.314z"/>
	</g>
</g>
<g>
	<g>
		<path d="M196,91c-41.353,0-75-34.647-75-76V0H91v15c0,41.353-34.647,76-76,76H0v30h15c41.353,0,76,33.647,76,75v15h30v-15
			c0-41.353,33.647-75,75-75h15V91H196z"/>
	</g>
</g>
<g>
	<g>
		<path d="M170.292,421C143.119,421,121,398.881,121,371.708V361H91v10.708C91,398.881,68.881,421,41.708,421H31v30h10.708
			C68.881,451,91,474.119,91,501.292V512h30v-10.708C121,474.119,143.119,451,170.292,451H181v-30H170.292z"/>
	</g>
</g>
<g>
</g>
<g>
</g>
<g>
</g>
<g>
</g>
<g>
</g>
<g>
</g>
<g>
</g>
<g>
</g>
<g>
</g>
<g>
</g>
<g>
</g>
<g>
</g>
<g>
</g>
<g>
</g>
<g>
</g>
</svg>
