<svg id="Capa_1" enable-background="new 0 0 510 510" height="512" viewBox="0 0 510 510" width="512" xmlns="http://www.w3.org/2000/svg"><g><g><path d="m104 357.824h60v90h-60z" fill="#ffc377"/></g><path d="m344 359h60v90h-60z" fill="#ffa07b"/><path d="m255 357.82h29v90h-29z" fill="#ffa07b"/><path d="m224 357.82h31v90h-31z" fill="#ffc377"/><path d="m510 344.66v28.87h-112.94l-141.06-39.4-1 .28v-253.1l46.58 2.12 48.3-83.43h36.22l67.43 119.29v28.36h-15.11l43.34 80.02v28.21h-29.66z" fill="#007579"/><path d="m255 81.31v253.1l-142.06 39.12h-112.94v-28.87l57.9-88.78h-29.66v-28.21l43.34-80.02h-15.11v-28.36l67.43-119.29h35.95l48.76 79.2z" fill="#00a98f"/><path d="m397.06 344.95v28.87h-142.06v-373.53h18.16l67.43 119.29v28.36h-15.11l43.34 80.02v28.22h-29.66z" fill="#00a98f"/><path d="m255 .29v373.53h-142.06v-28.87l57.9-88.77h-29.66v-28.22l43.34-80.02h-15.11v-28.36l67.43-119.29z" fill="#00dc80"/><path d="m510 481.59v28.41h-255v-90h44.53c71.76 0 142.06 19.78 203.29 57.2z" fill="#00a98f"/><path d="m255 420v90h-255v-28.41l7.18-4.39c61.23-37.42 131.53-57.2 203.3-57.2z" fill="#00dc80"/></g></svg>