<?xml version="1.0" encoding="iso-8859-1"?>
<!-- Generator: Adobe Illustrator 19.0.0, SVG Export Plug-In . SVG Version: 6.00 Build 0)  -->
<svg version="1.1" id="Capa_1" xmlns="http://www.w3.org/2000/svg" xmlns:xlink="http://www.w3.org/1999/xlink" x="0px" y="0px"
	 viewBox="0 0 512 512" style="enable-background:new 0 0 512 512;" xml:space="preserve">
<path style="fill:#6693C4;" d="M512,256c0,69.893-28.003,133.256-73.415,179.44c-1.055,1.076-2.111,2.132-3.187,3.177
	C389.204,484.007,325.872,512,256,512c-34.064,0-66.57-6.656-96.298-18.735c-9.373-3.803-18.474-8.15-27.261-13.009
	c-13.5-7.45-26.258-16.091-38.128-25.778c-7.314-5.956-14.284-12.319-20.898-19.038C28.003,389.256,0,325.893,0,256
	S28.003,122.744,73.415,76.56c6.614-6.719,13.584-13.082,20.898-19.038c2.194-1.797,4.43-3.553,6.687-5.277
	c10.146-7.732,20.898-14.733,32.162-20.898C169.618,11.358,211.477,0,256,0s86.382,11.358,122.838,31.347
	c22.1,12.11,42.214,27.376,59.747,45.213C483.997,122.744,512,186.107,512,256z"/>
<path style="fill:#7DAAD1;" d="M465.643,209.643c0,57.236-22.932,109.126-60.12,146.947c-0.864,0.882-1.728,1.746-2.61,2.602
	C365.083,396.363,313.22,419.287,256,419.287c-27.896,0-54.515-5.45-78.86-15.342c-7.676-3.115-15.129-6.675-22.325-10.654
	c-11.055-6.101-21.503-13.177-31.224-21.11c-5.989-4.878-11.698-10.088-17.113-15.591c-37.188-37.821-60.12-89.71-60.12-146.947
	s22.931-109.126,60.119-146.947c5.417-5.502,11.124-10.713,17.113-15.591c1.797-1.472,3.628-2.909,5.476-4.322
	c8.309-6.332,17.113-12.065,26.338-17.113C185.26,9.302,219.539,0,256,0s70.74,9.302,100.594,25.671
	c18.098,9.917,34.569,22.419,48.928,37.026C442.711,100.517,465.643,152.407,465.643,209.643z"/>
<path style="fill:#8E76CC;" d="M438.585,55.714V435.44C392.14,482.691,327.492,512,256,512c-34.064,0-66.57-6.656-96.298-18.735
	c-9.373-3.803-18.474-8.15-27.261-13.009c-13.5-7.45-26.258-16.091-38.128-25.778c-7.314-5.956-14.284-12.319-20.898-19.038V55.714
	c0-13.458,10.909-24.367,24.367-24.367h316.437C427.677,31.347,438.585,42.256,438.585,55.714z"/>
<path style="fill:#343B5E;" d="M344.534,55.714v434.082c0,1.912-1.557,3.469-3.469,3.469H159.702
	c-9.373-3.803-18.474-8.15-27.261-13.009c-13.5-7.45-26.258-16.091-38.128-25.778V55.714c0-1.912,1.557-3.469,3.469-3.469h243.284
	C342.977,52.245,344.534,53.802,344.534,55.714z"/>
<path style="fill:#6B50A3;" d="M438.585,105.838V435.44c-1.055,1.076-2.111,2.132-3.187,3.177l-82.683-27.387V134.29
	L438.585,105.838z"/>
<g>
	<circle style="fill:#343B5E;" cx="395.651" cy="169.315" r="14.105"/>
	<circle style="fill:#343B5E;" cx="395.651" cy="376.195" r="14.105"/>
</g>
<path style="fill:#E0E0E0;" d="M306.406,52.245v441.02H159.702c-9.373-3.803-18.474-8.15-27.261-13.009V52.245H306.406z"/>
<circle style="fill:#343B5E;" cx="219.429" cy="155.209" r="43.449"/>
<circle style="fill:#6693C4;" cx="219.429" cy="155.209" r="30.723"/>
<circle style="fill:#343B5E;" cx="219.429" cy="390.301" r="43.449"/>
<g>
	<circle style="fill:#6693C4;" cx="219.429" cy="390.301" r="30.723"/>
	<path style="fill:#6693C4;" d="M251.549,232.208v81.105c0,6.134-4.974,11.118-11.107,11.118h-42.036
		c-6.134,0-11.107-4.984-11.107-11.118v-81.105c0-6.144,4.974-11.118,11.107-11.118h42.036
		C246.575,221.09,251.549,226.064,251.549,232.208z"/>
</g>
<path style="fill:#343B5E;" d="M251.549,259.427v53.885c0,6.134-4.974,11.118-11.107,11.118h-42.036
	c-6.134,0-11.107-4.984-11.107-11.118v-53.885c10.292-2.518,21.055-3.856,32.131-3.856
	C230.494,255.572,241.256,256.909,251.549,259.427z"/>
<polygon style="fill:#C43877;" points="306.406,52.245 306.406,493.265 213.755,493.265 282.185,424.835 282.185,52.245 "/>
<g>
</g>
<g>
</g>
<g>
</g>
<g>
</g>
<g>
</g>
<g>
</g>
<g>
</g>
<g>
</g>
<g>
</g>
<g>
</g>
<g>
</g>
<g>
</g>
<g>
</g>
<g>
</g>
<g>
</g>
</svg>
